<?xml version="1.0" encoding="UTF-8" ?>
<!DOCTYPE svg PUBLIC "-//W3C//DTD SVG 1.1//EN" "http://www.w3.org/Graphics/SVG/1.1/DTD/svg11.dtd">
<svg width="210pt" height="84pt" viewBox="0 0 210 84" version="1.1" xmlns="http://www.w3.org/2000/svg">
<g id="#005f86ff">
<path fill="#005f86" opacity="1.00" d=" M 43.21 18.16 C 44.26 17.81 45.42 16.50 46.54 17.44 C 53.03 20.76 59.39 24.36 65.91 27.63 C 64.68 30.61 61.41 29.63 58.90 29.77 C 48.19 29.59 37.45 30.01 26.76 29.58 C 26.36 29.14 25.56 28.27 25.16 27.84 C 31.14 24.55 37.21 21.41 43.21 18.16 M 37.08 25.76 C 36.19 26.02 36.50 26.89 36.73 27.53 L 37.15 26.21 C 42.72 26.27 48.28 26.27 53.85 26.21 L 54.27 27.53 C 54.33 27.21 54.47 26.56 54.54 26.24 C 51.80 24.30 48.53 23.24 45.60 21.64 C 42.78 23.06 39.86 24.26 37.08 25.76 Z" />
<path fill="#005f86" opacity="1.00" d=" M 30.64 31.62 C 32.10 31.69 33.55 31.75 35.00 31.80 C 35.00 38.03 35.00 44.26 35.00 50.48 C 36.44 50.50 37.88 50.51 39.32 50.54 C 39.17 44.27 39.30 38.00 39.24 31.74 C 40.67 31.72 42.10 31.70 43.53 31.68 C 43.40 37.99 43.67 44.30 43.36 50.61 C 44.79 50.59 46.21 50.59 47.64 50.61 C 47.34 44.30 47.60 37.98 47.47 31.66 C 48.98 31.71 50.49 31.75 52.00 31.78 C 52.00 38.02 51.99 44.26 52.01 50.50 C 53.45 50.50 54.89 50.52 56.32 50.53 C 56.17 44.27 56.30 38.00 56.24 31.74 C 57.67 31.72 59.10 31.70 60.53 31.68 C 60.44 38.11 60.58 44.54 60.44 50.97 C 60.89 50.77 61.80 50.37 62.26 50.16 C 62.28 51.25 62.31 53.44 62.33 54.53 C 51.11 54.48 39.90 54.48 28.68 54.53 C 28.69 53.48 28.70 51.38 28.71 50.33 C 29.22 50.43 30.24 50.63 30.75 50.73 C 30.70 44.36 30.87 37.99 30.64 31.62 Z" />
<path fill="#005f86" opacity="1.00" d=" M 26.76 56.50 C 39.28 56.49 51.79 56.54 64.31 56.47 C 64.31 57.48 64.31 59.52 64.31 60.53 C 51.76 60.48 39.21 60.48 26.67 60.53 C 26.69 59.52 26.74 57.50 26.76 56.50 Z" />
</g>
<g id="#ffffffff">
<path fill="#ffffff" opacity="1.00" d=" M 38.41 8.64 C 47.44 6.78 57.54 8.36 64.86 14.23 C 72.15 19.18 76.80 27.42 78.21 36.04 C 79.66 44.51 77.17 53.34 72.46 60.42 C 67.29 67.23 59.74 72.54 51.16 73.82 C 45.33 74.49 39.23 74.39 33.72 72.17 C 22.38 67.83 13.98 56.99 12.64 44.91 C 10.35 28.61 22.22 11.74 38.41 8.64 M 43.21 18.16 C 37.21 21.41 31.14 24.55 25.16 27.84 C 25.56 28.27 26.36 29.14 26.76 29.58 C 37.45 30.01 48.19 29.59 58.90 29.77 C 61.41 29.63 64.68 30.61 65.91 27.63 C 59.39 24.36 53.03 20.76 46.54 17.44 C 45.42 16.50 44.26 17.81 43.21 18.16 M 30.64 31.62 C 30.87 37.99 30.70 44.36 30.75 50.73 C 30.24 50.63 29.22 50.43 28.71 50.33 C 28.70 51.38 28.69 53.48 28.68 54.53 C 39.90 54.48 51.11 54.48 62.33 54.53 C 62.31 53.44 62.28 51.25 62.26 50.16 C 61.80 50.37 60.89 50.77 60.44 50.97 C 60.58 44.54 60.44 38.11 60.53 31.68 C 59.10 31.70 57.67 31.72 56.24 31.74 C 56.30 38.00 56.17 44.27 56.32 50.53 C 54.89 50.52 53.45 50.50 52.01 50.50 C 51.99 44.26 52.00 38.02 52.00 31.78 C 50.49 31.75 48.98 31.71 47.47 31.66 C 47.60 37.98 47.34 44.30 47.64 50.61 C 46.21 50.59 44.79 50.59 43.36 50.61 C 43.67 44.30 43.40 37.99 43.53 31.68 C 42.10 31.70 40.67 31.72 39.24 31.74 C 39.30 38.00 39.17 44.27 39.32 50.54 C 37.88 50.51 36.44 50.50 35.00 50.48 C 35.00 44.26 35.00 38.03 35.00 31.80 C 33.55 31.75 32.10 31.69 30.64 31.62 M 26.76 56.50 C 26.74 57.50 26.69 59.52 26.67 60.53 C 39.21 60.48 51.76 60.48 64.31 60.53 C 64.31 59.52 64.31 57.48 64.31 56.47 C 51.79 56.54 39.28 56.49 26.76 56.50 Z" />
<path fill="#005f86" opacity="1.00" d=" M 37.08 25.76 C 39.86 24.26 42.78 23.06 45.60 21.64 C 48.53 23.24 51.80 24.30 54.54 26.24 C 54.47 26.56 54.33 27.21 54.27 27.53 L 53.85 26.21 C 48.28 26.27 42.72 26.27 37.15 26.21 L 36.73 27.53 C 36.50 26.89 36.19 26.02 37.08 25.76 Z" />
<path fill="#005f86" opacity="1.00" d=" M 95.88 26.25 C 101.76 26.38 107.67 25.98 113.54 26.44 C 117.90 26.79 122.45 30.25 121.96 35.02 C 122.30 38.70 119.10 41.04 116.17 42.45 C 120.33 43.52 124.26 47.30 123.38 51.92 C 123.21 57.28 117.72 60.22 112.93 60.44 C 107.25 60.63 101.56 60.44 95.88 60.50 C 95.88 59.65 95.87 57.94 95.86 57.09 C 97.22 56.84 98.57 56.60 99.93 56.36 C 99.91 47.69 99.91 39.02 99.93 30.36 C 98.58 30.23 97.23 30.09 95.88 29.93 C 95.88 28.70 95.88 27.48 95.88 26.25 M 105.59 30.49 C 105.58 33.92 105.58 37.34 105.59 40.76 C 108.55 40.59 111.92 41.38 114.53 39.55 C 116.97 37.45 116.80 32.64 113.69 31.22 C 111.17 30.02 108.27 30.63 105.59 30.49 M 105.60 44.75 C 105.59 48.58 105.60 52.41 105.60 56.25 C 108.35 56.20 111.17 56.53 113.87 55.83 C 118.79 54.80 118.79 46.41 113.96 45.25 C 111.25 44.46 108.38 44.80 105.60 44.75 Z" />
<path fill="#005f86" opacity="1.00" d=" M 125.70 26.26 C 128.75 26.29 131.82 26.08 134.86 26.35 C 135.95 26.84 136.41 28.14 137.17 29.01 C 142.47 36.73 148.05 44.26 153.27 52.05 C 153.01 44.74 153.22 37.43 153.13 30.13 C 151.81 30.05 150.50 29.97 149.18 29.90 C 149.17 28.68 149.16 27.47 149.15 26.25 C 153.45 26.24 157.75 26.25 162.05 26.25 C 162.05 27.47 162.05 28.68 162.04 29.90 C 160.75 29.97 159.45 30.04 158.16 30.11 C 158.05 40.23 158.15 50.36 158.10 60.49 C 156.46 60.50 154.81 60.52 153.17 60.54 C 146.94 51.67 140.26 43.09 134.53 33.90 C 134.88 41.37 134.64 48.86 134.70 56.34 C 136.05 56.61 137.40 56.87 138.76 57.14 C 138.72 58.26 138.69 59.39 138.66 60.51 C 134.34 60.50 130.02 60.50 125.70 60.50 C 125.70 59.58 125.70 57.75 125.69 56.84 C 127.05 56.68 128.40 56.52 129.76 56.38 C 129.72 47.62 129.82 38.85 129.70 30.08 C 128.39 30.04 127.08 30.00 125.77 29.96 C 125.74 28.73 125.72 27.49 125.70 26.26 Z" />
<path fill="#005f86" opacity="1.00" d=" M 176.22 26.24 C 177.98 26.25 179.74 26.25 181.50 26.26 C 185.31 36.31 189.15 46.34 193.01 56.36 C 194.08 56.60 195.16 56.84 196.25 57.09 C 196.24 57.94 196.23 59.64 196.22 60.50 C 192.08 60.50 187.94 60.50 183.80 60.50 C 183.80 59.65 183.78 57.94 183.78 57.09 C 184.55 56.91 186.10 56.55 186.87 56.37 C 186.23 54.58 185.60 52.79 184.96 51.00 C 180.48 51.04 176.00 50.87 171.53 51.14 C 170.95 52.88 170.35 54.60 169.74 56.32 C 170.76 56.59 171.78 56.85 172.81 57.12 C 172.80 57.96 172.78 59.65 172.77 60.50 C 168.94 60.50 165.12 60.50 161.29 60.51 C 161.27 59.38 161.24 58.24 161.22 57.11 C 162.29 56.84 163.36 56.57 164.42 56.31 C 168.34 46.28 172.29 36.26 176.22 26.24 M 173.08 47.00 C 176.53 47.00 179.98 47.00 183.43 46.99 C 181.78 42.13 179.94 37.33 178.34 32.44 C 176.68 37.33 174.85 42.15 173.08 47.00 Z" />
</g>
</svg>
