<?xml version="1.0" encoding="UTF-8" ?>
<!DOCTYPE svg PUBLIC "-//W3C//DTD SVG 1.1//EN" "http://www.w3.org/Graphics/SVG/1.1/DTD/svg11.dtd">
<svg width="1100pt" height="700pt" viewBox="0 0 1100 700" version="1.1" xmlns="http://www.w3.org/2000/svg">
<g id="#eb001bff">
<path fill="#eb001b" opacity="1.00" d=" M 312.86 18.29 C 379.64 11.83 448.22 26.35 506.71 59.20 C 521.83 67.64 536.27 77.30 549.90 87.97 C 524.04 108.62 500.92 132.77 482.11 160.02 C 459.41 192.69 442.64 229.47 432.90 268.04 C 420.58 316.48 419.42 367.70 429.37 416.67 C 443.30 485.90 480.04 550.28 532.61 597.44 C 538.18 602.55 544.09 607.28 549.91 612.12 C 518.36 636.96 482.24 655.98 443.93 668.00 C 399.52 681.99 352.15 686.48 305.90 681.12 C 261.75 676.04 218.64 662.04 179.97 640.11 C 144.12 619.86 112.08 592.88 86.04 560.98 C 53.56 521.33 30.46 474.07 19.12 424.08 C 8.70 378.52 8.05 330.76 17.22 284.94 C 26.27 239.38 44.99 195.76 71.82 157.84 C 101.62 115.58 141.41 80.42 187.06 56.12 C 225.92 35.33 268.97 22.36 312.86 18.29 Z" />
</g>
<g id="#f79e1bff">
<path fill="#f79e1b" opacity="1.00" d=" M 658.05 31.40 C 706.39 16.47 758.15 12.83 808.12 20.78 C 879.95 31.98 947.67 67.61 997.60 120.45 C 1038.66 163.56 1067.76 217.91 1080.89 275.99 C 1092.99 328.91 1091.85 384.79 1077.60 437.17 C 1066.76 477.24 1048.34 515.25 1023.58 548.57 C 998.59 582.32 967.12 611.25 931.39 633.34 C 881.89 664.10 824.18 681.45 765.93 683.12 C 688.63 685.64 610.81 660.05 550.14 612.09 C 576.28 590.99 599.77 566.48 618.70 538.68 C 659.36 479.78 680.16 407.50 676.99 336.00 C 674.14 263.58 646.69 192.44 600.22 136.83 C 585.33 118.76 568.25 102.61 550.11 87.85 C 582.22 62.63 619.00 43.36 658.05 31.40 Z" />
<path fill="#f79e1b" opacity="1.00" d=" M 1050.99 543.60 C 1054.65 543.59 1058.32 543.59 1062.00 543.60 C 1062.00 544.15 1062.00 545.25 1062.00 545.80 C 1060.45 545.79 1058.92 545.79 1057.39 545.80 C 1057.35 549.36 1057.37 552.93 1057.38 556.51 L 1055.41 556.67 C 1055.27 553.05 1055.36 549.42 1055.33 545.81 C 1053.87 545.80 1052.42 545.79 1050.99 545.80 C 1050.99 545.25 1050.99 544.15 1050.99 543.60 Z" />
<path fill="#f79e1b" opacity="1.00" d=" M 1064.36 556.61 C 1064.28 552.26 1064.30 547.92 1064.34 543.58 C 1065.18 543.59 1066.85 543.61 1067.68 543.63 C 1068.94 546.71 1070.23 549.78 1071.56 552.84 C 1072.83 549.77 1074.12 546.70 1075.40 543.63 C 1076.23 543.61 1077.90 543.59 1078.73 543.57 C 1078.78 547.89 1078.73 552.22 1078.77 556.55 C 1078.19 556.56 1077.04 556.58 1076.47 556.59 C 1076.43 553.32 1076.45 550.05 1076.45 546.78 C 1075.21 549.57 1074.04 552.38 1072.82 555.18 C 1072.19 555.17 1070.94 555.14 1070.32 555.13 C 1069.13 552.34 1067.94 549.55 1066.73 546.78 C 1066.72 550.04 1066.73 553.30 1066.72 556.56 L 1064.36 556.61 Z" />
</g>
<g id="#ff5f00ff">
<path fill="#ff5f00" opacity="1.00" d=" M 549.90 87.97 L 550.08 87.82 L 550.11 87.85 C 568.25 102.61 585.33 118.76 600.22 136.83 C 646.69 192.44 674.14 263.58 676.99 336.00 C 680.16 407.50 659.36 479.78 618.70 538.68 C 599.77 566.48 576.28 590.99 550.14 612.09 L 550.00 612.20 L 549.91 612.12 C 544.09 607.28 538.18 602.55 532.61 597.44 C 480.04 550.28 443.30 485.90 429.37 416.67 C 419.42 367.70 420.58 316.48 432.90 268.04 C 442.64 229.47 459.41 192.69 482.11 160.02 C 500.92 132.77 524.04 108.62 549.90 87.97 Z" />
</g>
</svg>
