<?xml version="1.0" encoding="UTF-8" ?>
<!DOCTYPE svg PUBLIC "-//W3C//DTD SVG 1.1//EN" "http://www.w3.org/Graphics/SVG/1.1/DTD/svg11.dtd">
<svg width="480pt" height="480pt" viewBox="0 0 480 480" version="1.1" xmlns="http://www.w3.org/2000/svg">
<g id="#ffffffff">
<path fill="#ffffff" opacity="1.00" d=" M 169.52 128.73 C 176.54 127.10 182.97 135.50 179.82 141.90 C 177.78 148.54 167.70 149.77 163.84 144.15 C 159.15 138.97 162.76 129.84 169.52 128.73 Z" />
<path fill="#ffffff" opacity="1.00" d=" M 304.57 128.66 C 312.39 127.26 318.18 137.41 313.55 143.65 C 310.06 149.50 300.13 148.90 297.42 142.65 C 294.02 137.13 298.37 129.45 304.57 128.66 Z" />
</g>
<g id="#0b6bffff">
<path fill="#0b6bff" opacity="1.00" d=" M 230.02 70.78 C 243.72 69.76 257.65 71.02 270.79 75.14 C 281.39 78.69 291.40 84.02 300.33 90.73 C 305.68 95.36 310.79 100.34 315.32 105.78 C 323.26 116.67 329.62 128.91 332.68 142.09 C 334.66 149.92 335.49 157.98 336.27 166.00 C 336.30 228.01 336.26 290.02 336.29 352.03 C 336.40 356.99 336.40 362.31 333.78 366.72 C 329.06 374.46 315.96 374.44 311.30 366.65 C 308.70 362.24 308.62 356.94 308.76 351.98 C 308.77 314.65 308.78 277.33 308.76 240.01 C 309.03 232.47 304.73 225.61 299.39 220.63 C 294.22 215.74 287.00 213.38 279.95 213.51 C 265.50 213.71 252.89 226.63 252.90 241.05 C 252.75 270.01 252.96 298.98 252.80 327.94 C 252.73 334.78 246.84 340.96 239.98 341.21 C 232.61 341.83 225.49 335.37 225.57 327.92 C 225.43 301.63 225.57 275.32 225.50 249.03 C 225.35 241.32 222.92 233.22 217.09 227.90 C 211.64 223.02 204.42 219.82 197.02 220.11 C 188.52 220.09 180.39 224.52 175.07 231.02 C 171.16 236.11 169.23 242.64 169.41 249.03 C 169.45 270.02 169.39 291.00 169.44 311.99 C 169.51 316.11 168.55 320.60 165.48 323.55 C 160.16 328.99 150.02 328.70 145.32 322.58 C 142.89 319.64 142.29 315.71 142.38 312.00 C 142.41 268.01 142.38 224.02 142.40 180.03 C 142.55 172.67 142.18 165.28 142.87 157.94 C 144.68 144.36 147.91 130.71 154.77 118.73 C 162.67 103.94 174.73 91.32 189.51 83.31 C 201.83 76.05 215.80 71.98 230.02 70.78 M 169.52 128.73 C 162.76 129.84 159.15 138.97 163.84 144.15 C 167.70 149.77 177.78 148.54 179.82 141.90 C 182.97 135.50 176.54 127.10 169.52 128.73 M 304.57 128.66 C 298.37 129.45 294.02 137.13 297.42 142.65 C 300.13 148.90 310.06 149.50 313.55 143.65 C 318.18 137.41 312.39 127.26 304.57 128.66 Z" />
</g>
<g id="#3c3c3cff">
<path fill="#3c3c3c" opacity="1.00" d=" M 267.34 241.05 C 267.34 233.95 274.02 228.04 280.99 228.20 C 288.24 228.03 294.69 234.76 294.33 241.98 C 294.33 280.66 294.32 319.34 294.34 358.02 C 294.21 368.88 300.40 379.94 310.47 384.45 C 321.21 389.54 334.84 387.06 343.11 378.52 C 341.37 392.66 330.93 405.68 316.93 409.22 C 311.44 410.93 305.65 410.38 299.99 410.45 C 256.31 410.45 212.63 410.45 168.95 410.45 C 150.95 410.01 135.61 393.78 134.98 376.02 C 135.02 361.67 134.98 347.32 135.00 332.97 C 145.03 344.44 164.70 344.88 175.45 334.20 C 180.62 328.83 183.84 321.49 183.88 314.00 C 183.88 292.67 183.90 271.35 183.87 250.02 C 183.80 244.85 185.65 238.95 190.55 236.45 C 196.06 233.29 203.57 234.44 207.85 239.12 C 210.31 241.77 211.07 245.53 211.14 249.03 C 211.18 275.37 211.08 301.71 211.18 328.04 C 211.12 338.71 217.76 348.93 227.45 353.34 C 232.36 355.90 238.02 355.95 243.40 355.55 C 251.95 354.54 259.36 348.78 263.71 341.54 C 267.11 335.63 267.59 328.62 267.32 321.96 C 267.33 294.99 267.29 268.02 267.34 241.05 Z" />
</g>
</svg>
