<?xml version="1.0" encoding="UTF-8"?>
<svg id="Capa_2" data-name="Capa 2" xmlns="http://www.w3.org/2000/svg" viewBox="0 0 195.17 211.2">
  <defs>
    <style>
      .cls-1 {
        fill: #f5888a;
      }

      .cls-1, .cls-2 {
        stroke-width: 0px;
      }

      .cls-2 {
        fill: #a288f5;
      }
    </style>
  </defs>
  <g id="Layer_1" data-name="Layer 1">
    <path class="cls-1" d="M0,.22C21.92-.22,43.85.15,65.78.03c.28.58.83,1.73,1.11,2.31,7.88,2.37,15.51,5.74,21.87,11.05,10.38,8.19,20.77,16.57,29.09,26.93,1.84,2.5,5.19,4.51,4.88,8-3-.75-5.59-2.79-8.62-3.28-17.33-.04-34.66.02-51.99-.02.1,43.34-.02,86.69.01,130.03-1.12,9.2-6.51,17.59-13.99,22.99-9.33,8.27-21.86,11.68-33.99,13.16-.05-61.73,0-123.46-.03-185.18-.28-3.67-1.8-7.12-2.2-10.79C10.77,8.52,4.91,4.28,0,.22Z"/>
    <path class="cls-2" d="M65.78.03c19.72.07,39.45-.19,59.16.21,2.97.91,6.35.21,9.02,1.97,3.99,1.93,8.39,2.76,12.45,4.5,17.62,8.7,32.98,22.94,40.93,41.13,2.55,4.86,3.49,10.33,5.51,15.41.73,4.6,1.38,9.22,2.19,13.82.34,6.84.05,13.76-1.51,20.46-.37,1.26-.32,2.58-.24,3.89-2.15,2.92-1.91,6.88-3.79,9.98-.78,4.02-3.79,6.98-5.31,10.68-7.98,14.83-21.21,26.49-36.39,33.63-7.41,3.91-15.24,7.41-23.66,8.31-20.01.04-40.02-.02-60.03.03.57-2.96.04-5.93.07-8.9,1.01-4.17,3.27-7.89,5.52-11.49,2.63-2.73,5.68-5.04,8.14-7.95,2.37-2.92,5.93-4.46,8.39-7.29,2.04.06,3.76-1.18,5.65-1.78,9.22-3.65,19.77-2.48,28.62-7.28,11.56-4.74,19.05-16.49,21.54-28.38.14-8.22,1.1-17.1-3.39-24.46-1.41-4.46-4.49-8.06-7.68-11.37-2.14-2.92-5-5.22-8.24-6.83.31-3.49-3.04-5.5-4.88-8-8.32-10.36-18.71-18.74-29.09-26.93-6.36-5.31-13.99-8.68-21.87-11.05-.28-.58-.83-1.73-1.11-2.31Z"/>
  </g>
</svg>