<?xml version="1.0" encoding="UTF-8" ?>
<!DOCTYPE svg PUBLIC "-//W3C//DTD SVG 1.1//EN" "http://www.w3.org/Graphics/SVG/1.1/DTD/svg11.dtd">
<svg width="360pt" height="118pt" viewBox="0 0 360 118" version="1.1" xmlns="http://www.w3.org/2000/svg">
<g id="#f7f7f7ff">
<path fill="#f7f7f7" opacity="1.00" d=" M 353.41 101.28 C 356.99 100.93 360.13 105.19 358.45 108.45 C 357.49 111.93 352.09 112.93 350.06 109.91 C 347.37 107.00 349.37 101.49 353.41 101.28 M 351.80 103.10 C 351.66 105.42 351.02 108.00 352.47 110.06 C 352.62 109.16 352.91 107.36 353.06 106.45 C 354.98 106.71 355.12 108.50 355.50 110.04 C 356.12 108.35 356.04 106.53 356.13 104.77 C 355.87 102.60 353.23 103.40 351.80 103.10 Z" />
<path fill="#f7f7f7" opacity="1.00" d=" M 353.06 104.24 C 354.66 103.68 355.22 104.22 354.75 105.88 C 353.12 106.43 352.56 105.88 353.06 104.24 Z" />
</g>
<g id="#293496ff">
<path fill="#293496" opacity="1.00" d=" M 217.52 3.81 C 228.61 2.29 240.08 3.80 250.50 7.84 C 249.30 15.56 247.93 23.27 246.84 31.01 C 237.63 26.40 226.96 24.57 216.79 26.42 C 212.78 27.32 208.24 29.64 207.45 34.09 C 206.83 37.51 209.41 40.30 211.94 42.17 C 218.73 46.99 226.80 49.68 233.51 54.63 C 239.41 58.80 244.39 64.79 245.87 72.01 C 248.03 82.61 244.25 94.08 236.61 101.67 C 230.29 107.73 221.98 111.38 213.49 113.22 C 197.99 116.04 181.65 114.77 166.95 109.00 C 168.32 101.01 169.38 92.96 170.89 84.99 C 181.93 90.74 194.69 93.86 207.09 91.50 C 211.56 90.60 216.47 87.78 217.33 82.93 C 218.17 79.07 215.40 75.72 212.49 73.61 C 206.47 69.28 199.26 66.98 193.21 62.69 C 187.78 58.95 182.58 54.24 180.21 47.92 C 176.13 37.48 179.64 25.19 187.23 17.26 C 195.10 9.08 206.37 4.83 217.52 3.81 Z" />
<path fill="#293496" opacity="1.00" d=" M 98.14 5.20 C 107.90 5.19 117.66 5.28 127.42 5.21 C 113.04 41.20 98.09 76.97 83.67 112.95 C 73.85 113.08 64.03 113.06 54.21 113.00 C 45.92 81.70 37.71 50.38 29.38 19.09 C 42.66 27.19 54.47 38.09 62.14 51.73 C 63.80 54.95 65.38 58.22 67.10 61.41 C 68.42 67.28 69.48 73.21 70.65 79.11 C 79.97 54.54 88.96 29.83 98.14 5.20 Z" />
<path fill="#293496" opacity="1.00" d=" M 139.09 5.12 C 148.29 5.16 157.51 5.43 166.70 4.98 C 161.01 41.01 155.06 77.00 149.31 113.02 C 140.04 113.05 130.78 113.10 121.51 113.17 C 127.42 77.16 133.10 41.11 139.09 5.12 Z" />
<path fill="#293496" opacity="1.00" d=" M 286.77 12.70 C 288.83 7.98 293.90 5.34 298.91 5.32 C 306.66 5.21 314.41 5.39 322.15 5.19 C 329.64 41.22 337.06 77.25 344.78 113.22 C 336.17 113.22 327.56 113.09 318.95 113.19 C 317.90 107.82 316.73 102.48 315.63 97.12 C 303.69 96.69 291.74 97.43 279.80 96.79 C 277.55 102.17 275.81 107.75 273.79 113.23 C 264.04 113.03 254.29 113.24 244.54 113.18 C 258.85 79.79 272.56 46.14 286.77 12.70 M 287.61 74.94 C 295.42 75.10 303.23 74.64 311.05 74.89 C 308.27 61.39 305.41 47.91 302.73 34.39 C 297.32 47.74 292.78 61.48 287.61 74.94 Z" />
<path fill="#293496" opacity="1.00" d=" M 351.69 100.65 C 355.17 99.00 359.02 101.82 360.00 105.20 L 360.00 108.38 C 358.32 111.53 354.52 113.91 351.03 112.06 C 346.38 109.90 346.76 102.21 351.69 100.65 M 353.41 101.28 C 349.37 101.49 347.37 107.00 350.06 109.91 C 352.09 112.93 357.49 111.93 358.45 108.45 C 360.13 105.19 356.99 100.93 353.41 101.28 Z" />
<path fill="#293496" opacity="1.00" d=" M 351.80 103.10 C 353.23 103.40 355.87 102.60 356.13 104.77 C 356.04 106.53 356.12 108.35 355.50 110.04 C 355.12 108.50 354.98 106.71 353.06 106.45 C 352.91 107.36 352.62 109.16 352.47 110.06 C 351.02 108.00 351.66 105.42 351.80 103.10 M 353.06 104.24 C 352.56 105.88 353.12 106.43 354.75 105.88 C 355.22 104.22 354.66 103.68 353.06 104.24 Z" />
</g>
<g id="#fa9604ff">
<path fill="#fa9604" opacity="1.00" d=" M 0.00 5.22 C 13.32 4.74 26.67 5.12 40.00 5.00 C 44.55 5.11 49.60 4.60 53.54 7.39 C 56.58 9.19 57.84 12.72 58.35 16.03 C 61.22 31.16 64.48 46.23 67.10 61.41 C 65.38 58.22 63.80 54.95 62.14 51.73 C 54.47 38.09 42.66 27.19 29.38 19.09 C 20.22 13.72 10.18 10.08 0.00 7.19 L 0.00 5.22 Z" />
</g>
</svg>
