<?xml version="1.0" encoding="UTF-8" ?>
<!DOCTYPE svg PUBLIC "-//W3C//DTD SVG 1.1//EN" "http://www.w3.org/Graphics/SVG/1.1/DTD/svg11.dtd">
<svg width="250pt" height="95pt" viewBox="0 0 250 95" version="1.1" xmlns="http://www.w3.org/2000/svg">
<g id="#ffffffff">
<path fill="#ffffff" opacity="1.00" d=" M 39.57 3.77 C 51.27 1.69 64.04 4.02 73.48 11.51 C 84.31 19.09 90.93 31.91 91.72 45.01 C 92.25 54.82 89.01 64.54 83.71 72.72 C 75.99 83.46 63.40 91.13 49.99 91.36 C 39.59 91.89 28.73 89.14 20.64 82.38 C 11.32 74.95 4.92 63.84 3.78 51.92 C 0.72 29.86 17.59 7.22 39.57 3.77 M 42.70 17.70 C 35.35 21.83 27.80 25.57 20.41 29.61 C 21.50 30.45 22.26 32.17 23.88 32.01 C 37.25 32.64 50.65 32.14 64.03 32.32 C 67.86 32.17 72.72 33.17 75.11 29.36 C 66.05 24.62 57.05 19.76 47.91 15.18 C 46.03 15.68 44.40 16.79 42.70 17.70 M 39.26 34.69 C 39.22 43.10 39.25 51.52 39.36 59.93 C 37.48 59.81 35.60 59.71 33.73 59.62 C 33.75 51.44 33.71 43.25 33.75 35.07 C 31.77 34.99 29.79 34.89 27.81 34.77 C 27.99 43.23 28.03 51.70 28.00 60.16 C 27.31 59.94 25.93 59.50 25.24 59.28 C 25.20 61.29 25.18 63.29 25.15 65.30 C 40.14 65.31 55.12 65.31 70.11 65.30 C 70.07 63.36 70.03 61.42 69.99 59.48 C 69.41 59.70 68.24 60.15 67.66 60.38 C 67.71 51.82 67.75 43.27 67.77 34.71 C 65.84 34.70 63.92 34.70 61.99 34.70 C 61.99 43.03 61.98 51.36 62.05 59.69 C 60.17 59.69 58.28 59.69 56.40 59.70 C 56.38 51.36 56.39 43.03 56.40 34.70 C 54.34 34.70 52.28 34.70 50.23 34.71 C 50.33 43.14 50.10 51.57 50.42 60.00 C 48.57 60.00 46.72 60.00 44.87 60.00 C 45.08 51.57 44.94 43.14 45.03 34.71 C 43.11 34.70 41.18 34.70 39.26 34.69 M 22.62 67.70 C 22.56 69.57 22.51 71.43 22.46 73.29 C 39.24 73.32 56.02 73.31 72.80 73.30 C 72.80 71.43 72.80 69.57 72.80 67.70 C 56.07 67.69 39.35 67.69 22.62 67.70 Z" />
</g>
<g id="#005f86ff">
<path fill="#005f86" opacity="1.00" d=" M 42.70 17.70 C 44.40 16.79 46.03 15.68 47.91 15.18 C 57.05 19.76 66.05 24.62 75.11 29.36 C 72.72 33.17 67.86 32.17 64.03 32.32 C 50.65 32.14 37.25 32.64 23.88 32.01 C 22.26 32.17 21.50 30.45 20.41 29.61 C 27.80 25.57 35.35 21.83 42.70 17.70 Z" />
<path fill="#005f86" opacity="1.00" d=" M 114.84 27.51 C 122.54 27.59 130.25 27.27 137.95 27.72 C 143.87 27.84 149.91 32.80 149.62 39.05 C 150.04 43.78 145.97 47.14 142.16 49.05 C 145.67 50.39 149.28 52.46 150.79 56.09 C 152.64 60.81 151.29 66.98 146.94 69.89 C 144.37 71.75 141.27 72.82 138.09 72.91 C 130.34 73.29 122.58 73.28 114.83 73.25 C 114.82 71.68 114.82 70.12 114.81 68.56 C 116.62 68.32 118.42 68.06 120.22 67.80 C 120.21 56.21 120.21 44.61 120.24 33.01 C 118.44 32.84 116.64 32.67 114.85 32.49 C 114.84 30.83 114.84 29.17 114.84 27.51 M 127.78 33.27 C 127.76 37.75 127.77 42.23 127.79 46.72 C 131.87 46.82 136.45 47.46 140.00 44.98 C 142.73 42.24 142.55 36.97 139.26 34.72 C 136.01 32.18 131.58 33.13 127.78 33.27 M 127.79 52.22 C 127.78 57.31 127.78 62.40 127.79 67.49 C 131.73 67.38 135.87 68.02 139.66 66.62 C 144.94 64.32 145.10 55.44 139.77 53.12 C 135.89 52.03 131.78 52.37 127.79 52.22 Z" />
<path fill="#005f86" opacity="1.00" d=" M 154.60 27.51 C 158.70 27.60 162.85 27.18 166.92 27.84 C 168.86 29.36 170.07 31.57 171.51 33.54 C 177.57 42.12 183.63 50.69 189.52 59.39 C 190.25 60.34 190.90 61.86 192.36 61.55 L 191.45 60.45 C 191.03 51.23 191.22 41.99 191.17 32.76 C 189.41 32.59 187.66 32.42 185.91 32.24 C 185.90 30.66 185.88 29.08 185.87 27.50 C 191.60 27.50 197.33 27.50 203.06 27.50 C 203.05 29.08 203.04 30.66 203.04 32.24 C 201.32 32.42 199.60 32.59 197.89 32.76 C 197.80 46.26 197.79 59.75 197.78 73.24 C 195.60 73.25 193.42 73.25 191.25 73.25 C 182.73 61.58 174.20 49.90 166.35 37.76 C 166.80 47.66 166.52 57.57 166.58 67.47 C 168.36 67.84 170.13 68.21 171.91 68.59 C 171.91 70.14 171.91 71.69 171.91 73.24 C 166.13 73.26 160.36 73.25 154.59 73.25 C 154.59 71.58 154.59 69.91 154.60 68.24 C 156.39 68.08 158.19 67.92 160.00 67.76 C 160.02 56.01 160.01 44.26 159.93 32.51 C 158.18 32.50 156.44 32.49 154.69 32.49 C 154.66 30.83 154.63 29.17 154.60 27.51 Z" />
<path fill="#005f86" opacity="1.00" d=" M 221.96 27.50 C 224.30 27.50 226.65 27.50 229.00 27.50 C 234.14 40.93 239.25 54.36 244.36 67.80 C 245.79 68.05 247.23 68.31 248.67 68.57 C 248.63 70.13 248.60 71.69 248.58 73.26 C 243.07 73.24 237.56 73.26 232.05 73.25 C 232.04 71.70 232.04 70.15 232.04 68.61 C 233.41 68.35 234.77 68.10 236.14 67.84 C 235.35 65.39 234.51 62.96 233.67 60.52 C 227.69 60.52 221.70 60.37 215.73 60.72 C 214.95 62.96 214.15 65.19 213.35 67.42 C 214.70 67.85 216.05 68.28 217.41 68.71 C 217.38 70.22 217.36 71.73 217.34 73.25 C 212.25 73.25 207.16 73.25 202.07 73.25 C 202.02 71.75 201.98 70.24 201.94 68.74 C 203.38 68.29 204.82 67.85 206.26 67.41 C 211.47 54.10 216.73 40.80 221.96 27.50 M 224.75 35.83 C 222.47 42.32 220.15 48.79 217.76 55.24 C 222.36 55.25 226.96 55.25 231.55 55.24 C 229.28 48.77 227.08 42.28 224.75 35.83 Z" />
<path fill="#005f86" opacity="1.00" d=" M 39.26 34.69 C 41.18 34.70 43.11 34.70 45.03 34.71 C 44.94 43.14 45.08 51.57 44.87 60.00 C 46.72 60.00 48.57 60.00 50.42 60.00 C 50.10 51.57 50.33 43.14 50.23 34.71 C 52.28 34.70 54.34 34.70 56.40 34.70 C 56.39 43.03 56.38 51.36 56.40 59.70 C 58.28 59.69 60.17 59.69 62.05 59.69 C 61.98 51.36 61.99 43.03 61.99 34.70 C 63.92 34.70 65.84 34.70 67.77 34.71 C 67.75 43.27 67.71 51.82 67.66 60.38 C 68.24 60.15 69.41 59.70 69.99 59.48 C 70.03 61.42 70.07 63.36 70.11 65.30 C 55.12 65.31 40.14 65.31 25.15 65.30 C 25.18 63.29 25.20 61.29 25.24 59.28 C 25.93 59.50 27.31 59.94 28.00 60.16 C 28.03 51.70 27.99 43.23 27.81 34.77 C 29.79 34.89 31.77 34.99 33.75 35.07 C 33.71 43.25 33.75 51.44 33.73 59.62 C 35.60 59.71 37.48 59.81 39.36 59.93 C 39.25 51.52 39.22 43.10 39.26 34.69 Z" />
<path fill="#005f86" opacity="1.00" d=" M 22.62 67.70 C 39.35 67.69 56.07 67.69 72.80 67.70 C 72.80 69.57 72.80 71.43 72.80 73.30 C 56.02 73.31 39.24 73.32 22.46 73.29 C 22.51 71.43 22.56 69.57 22.62 67.70 Z" />
</g>
</svg>
