<?xml version="1.0" encoding="UTF-8" ?>
<!DOCTYPE svg PUBLIC "-//W3C//DTD SVG 1.1//EN" "http://www.w3.org/Graphics/SVG/1.1/DTD/svg11.dtd">
<svg width="225pt" height="225pt" viewBox="0 0 225 225" version="1.1" xmlns="http://www.w3.org/2000/svg">
<g id="#ffffffff">
</g>
<g id="#000000ff">
<path fill="#278664" opacity="1.00" d=" M 110.68 0.00 L 116.13 0.00 C 124.83 0.77 133.58 1.52 142.00 4.01 C 171.29 11.82 196.88 32.22 211.25 58.88 C 220.05 74.75 224.46 92.78 225.00 110.86 L 225.00 116.13 C 224.18 129.37 221.78 142.59 216.62 154.87 C 206.47 179.79 187.10 200.84 163.01 212.85 C 148.47 220.44 132.18 224.12 115.88 225.00 L 107.75 225.00 C 94.41 224.01 81.09 221.45 68.78 216.06 C 40.25 204.23 17.28 179.93 6.83 150.90 C 2.58 139.67 0.73 127.74 0.00 115.80 L 0.00 111.29 C 0.42 99.94 1.93 88.57 5.59 77.79 C 13.32 53.18 30.20 31.76 51.84 17.84 C 69.30 6.53 89.93 0.54 110.68 0.00 M 98.53 30.71 C 77.30 34.23 57.73 46.57 45.23 64.05 C 33.38 80.26 27.77 100.94 29.99 120.91 C 31.71 139.29 40.06 156.88 52.85 170.14 C 66.77 184.52 85.98 193.84 106.00 195.17 C 123.91 196.78 142.22 191.99 157.29 182.24 C 174.13 171.53 186.81 154.48 192.26 135.28 C 197.25 117.98 196.34 99.07 189.77 82.31 C 183.41 66.18 171.95 52.06 157.29 42.75 C 140.15 31.52 118.70 27.22 98.53 30.71 Z" />
<path fill="#278664" opacity="1.00" d=" M 106.40 50.20 C 110.39 50.26 114.39 50.28 118.38 50.19 C 118.36 53.69 118.36 57.19 118.37 60.69 C 127.89 60.90 138.35 60.94 146.45 66.66 C 153.26 72.42 153.56 82.11 153.69 90.34 C 147.89 90.30 142.09 90.35 136.29 90.31 C 136.22 86.69 135.99 82.58 133.07 80.00 C 129.09 76.45 123.39 76.46 118.37 76.44 C 118.36 85.44 118.37 94.45 118.36 103.45 C 128.07 103.82 138.24 104.33 147.06 108.81 C 153.67 112.21 155.93 120.12 156.38 127.01 C 156.88 135.45 156.73 144.58 152.21 152.02 C 149.78 156.07 145.65 158.74 141.23 160.14 C 133.90 162.67 126.04 162.63 118.38 162.75 C 118.34 166.77 118.36 170.79 118.38 174.81 C 114.39 174.72 110.39 174.74 106.40 174.80 C 106.46 170.78 106.44 166.76 106.43 162.75 C 98.08 162.70 89.45 162.62 81.59 159.46 C 76.75 157.61 72.75 153.69 70.88 148.85 C 68.41 142.88 68.28 136.29 68.43 129.93 C 74.37 129.92 80.32 129.92 86.26 129.93 C 86.47 134.81 85.94 140.66 89.55 144.51 C 94.41 147.97 100.82 146.93 106.43 147.55 C 106.44 137.78 106.43 128.01 106.44 118.24 C 97.08 118.22 87.16 117.89 78.77 113.26 C 71.04 108.43 69.49 98.41 69.50 90.02 C 69.33 81.31 70.64 70.79 78.70 65.73 C 87.08 61.08 97.05 60.77 106.41 60.71 C 106.45 57.20 106.45 53.70 106.40 50.20 M 89.19 82.45 C 86.58 87.37 86.94 94.18 90.68 98.45 C 94.71 102.68 101.01 102.60 106.42 102.87 C 106.46 94.02 106.42 85.17 106.44 76.32 C 100.37 76.52 92.74 76.58 89.19 82.45 M 118.37 119.07 C 118.36 128.57 118.36 138.07 118.37 147.57 C 123.69 147.44 129.62 147.40 133.95 143.85 C 137.99 140.64 138.94 135.01 138.48 130.14 C 138.11 126.80 137.23 122.79 133.88 121.20 C 129.04 119.01 123.58 119.12 118.37 119.07 Z" />
</g>
</svg>
