<?xml version="1.0" encoding="UTF-8" ?>
<!DOCTYPE svg PUBLIC "-//W3C//DTD SVG 1.1//EN" "http://www.w3.org/Graphics/SVG/1.1/DTD/svg11.dtd">
<svg width="215pt" height="354pt" viewBox="0 0 215 354" version="1.1" xmlns="http://www.w3.org/2000/svg">
<g id="#ffffffff">
<path fill="#ffffff" opacity="1.00" d=" M 38.56 64.72 C 45.59 63.13 51.98 71.56 48.80 77.95 C 46.74 84.53 36.70 85.79 32.87 80.17 C 28.11 74.99 31.77 65.82 38.56 64.72 Z" />
<path fill="#ffffff" opacity="1.00" d=" M 173.58 64.65 C 178.88 63.78 184.33 68.56 184.04 73.96 C 184.68 79.35 179.44 84.56 174.02 83.62 C 167.97 83.68 163.49 76.40 165.90 70.96 C 167.12 67.70 170.10 65.18 173.58 64.65 Z" />
</g>
<g id="#0b6bffff">
<path fill="#0b6bff" opacity="1.00" d=" M 98.99 6.81 C 117.01 5.43 135.66 8.00 151.96 16.11 C 159.41 19.95 166.89 24.11 172.98 29.95 C 177.36 34.27 181.97 38.43 185.56 43.45 C 192.53 53.52 198.31 64.57 201.29 76.51 C 203.54 84.84 204.38 93.45 205.28 102.01 C 205.28 163.98 205.27 225.96 205.28 287.94 C 205.41 292.93 205.39 298.28 202.78 302.72 C 198.07 310.46 184.96 310.44 180.31 302.66 C 178.07 298.89 177.56 294.37 177.74 290.07 C 177.78 252.06 177.77 214.06 177.75 176.05 C 178.04 167.49 172.63 159.83 166.14 154.76 C 155.24 146.58 138.42 148.25 129.41 158.51 C 124.57 163.75 121.73 170.91 121.88 178.07 C 121.78 206.71 121.95 235.36 121.80 263.99 C 121.70 270.83 115.81 276.97 108.95 277.22 C 101.62 277.81 94.54 271.41 94.57 264.00 C 94.44 240.35 94.55 216.70 94.51 193.05 C 94.57 186.29 94.85 179.26 92.16 172.90 C 89.25 164.96 81.86 159.44 73.95 157.08 C 64.99 154.51 54.94 156.93 47.97 163.06 C 41.96 167.83 38.80 175.45 38.43 182.99 C 38.41 205.00 38.42 227.00 38.43 249.01 C 38.36 252.59 37.43 256.37 34.94 259.07 C 29.77 264.97 19.17 264.90 14.34 258.59 C 11.87 255.63 11.29 251.66 11.38 247.92 C 11.47 198.63 11.25 149.34 11.51 100.05 C 12.65 82.91 16.70 65.57 26.00 50.92 C 40.89 25.16 69.65 9.05 98.99 6.81 M 38.56 64.72 C 31.77 65.82 28.11 74.99 32.87 80.17 C 36.70 85.79 46.74 84.53 48.80 77.95 C 51.98 71.56 45.59 63.13 38.56 64.72 M 173.58 64.65 C 170.10 65.18 167.12 67.70 165.90 70.96 C 163.49 76.40 167.97 83.68 174.02 83.62 C 179.44 84.56 184.68 79.35 184.04 73.96 C 184.33 68.56 178.88 63.78 173.58 64.65 Z" />
</g>
<g id="#3c3c3cff">
<path fill="#3c3c3c" opacity="1.00" d=" M 136.34 177.04 C 136.35 169.92 143.07 164.00 150.06 164.20 C 157.32 164.07 163.73 170.84 163.34 178.06 C 163.32 216.72 163.32 255.37 163.34 294.03 C 163.24 303.46 167.83 312.89 175.60 318.30 C 186.63 325.71 202.91 324.21 212.10 314.48 C 210.92 324.15 205.72 333.22 198.09 339.25 C 191.80 343.94 183.93 346.84 176.03 346.46 C 130.03 346.44 84.03 346.46 38.03 346.45 C 19.97 346.02 4.57 329.78 3.98 311.96 C 4.04 297.62 3.97 283.28 4.01 268.94 C 14.09 280.62 34.17 280.85 44.81 269.84 C 49.75 264.48 52.85 257.33 52.88 250.00 C 52.88 228.68 52.90 207.35 52.87 186.03 C 52.83 181.16 54.39 175.67 58.73 172.93 C 64.28 169.23 72.37 170.20 76.86 175.13 C 79.32 177.77 80.06 181.54 80.14 185.04 C 80.18 211.39 80.08 237.74 80.19 264.09 C 80.12 275.02 87.13 285.41 97.15 289.66 C 102.09 292.01 107.71 291.94 113.04 291.47 C 121.71 290.18 129.13 284.10 133.27 276.54 C 136.38 270.53 136.53 263.62 136.32 257.01 C 136.33 230.35 136.29 203.69 136.34 177.04 Z" />
</g>
</svg>
